<?xml version="1.0" encoding="us-ascii" standalone="no"?><svg xmlns="http://www.w3.org/2000/svg" xmlns:xlink="http://www.w3.org/1999/xlink" contentStyleType="text/css" height="865px" preserveAspectRatio="none" style="width:1302px;height:865px;background:#FFFFFF;" version="1.1" viewBox="0 0 1302 865" width="1302px" zoomAndPan="magnify"><defs><filter height="300%" id="fsb9db9a1yawh" width="300%" x="-1" y="-1"><feGaussianBlur result="blurOut" stdDeviation="2.0"/><feColorMatrix in="blurOut" result="blurOut2" type="matrix" values="0 0 0 0 0 0 0 0 0 0 0 0 0 0 0 0 0 0 .4 0"/><feOffset dx="4.0" dy="4.0" in="blurOut2" result="blurOut3"/><feBlend in="SourceGraphic" in2="blurOut3" mode="normal"/></filter></defs><g><!--cluster cl.ucn.disc.poo.restaurante--><g id="cluster_cl.ucn.disc.poo.restaurante"><polygon fill="none" filter="url(#fsb9db9a1yawh)" points="16,6.0137,193,6.0137,200,30.6348,1285,30.6348,1285,856.0137,16,856.0137,16,6.0137" style="stroke:#000000;stroke-width:1.5;"/><line style="stroke:#000000;stroke-width:1.5;" x1="16" x2="200" y1="30.6348" y2="30.6348"/><text fill="#000000" font-family="sans-serif" font-size="14" lengthAdjust="spacing" textLength="171" x="20" y="23.1211">cl.ucn.disc.poo.restaurante</text></g><!--cluster model--><g id="cluster_model"><polygon fill="none" filter="url(#fsb9db9a1yawh)" points="351,51.0137,395,51.0137,402,75.6348,1261,75.6348,1261,669.0137,351,669.0137,351,51.0137" style="stroke:#000000;stroke-width:1.5;"/><line style="stroke:#000000;stroke-width:1.5;" x1="351" x2="402" y1="75.6348" y2="75.6348"/><text fill="#000000" font-family="sans-serif" font-size="14" lengthAdjust="spacing" textLength="38" x="355" y="68.1211">model</text></g><!--cluster services--><g id="cluster_services"><polygon fill="none" filter="url(#fsb9db9a1yawh)" points="40,693.0137,98,693.0137,105,717.6348,825.5,717.6348,825.5,832.0137,40,832.0137,40,693.0137" style="stroke:#000000;stroke-width:1.5;"/><line style="stroke:#000000;stroke-width:1.5;" x1="40" x2="105" y1="717.6348" y2="717.6348"/><text fill="#000000" font-family="sans-serif" font-size="14" lengthAdjust="spacing" textLength="52" x="44" y="710.1211">services</text></g><!--class Producto--><g id="elem_Producto"><rect codeLine="10" fill="#FEFECE" filter="url(#fsb9db9a1yawh)" height="172.3086" id="Producto" style="stroke:#A80036;stroke-width:1.0;" width="256" x="989" y="368.0137"/><ellipse cx="1084.25" cy="390.3047" fill="#A9DCDF" rx="11" ry="11" style="stroke:#A80036;stroke-width:1.0;"/><path d="M1086.4375,392.0703 L1082.2969,392.0703 L1081.875,393.1016 L1082.2969,393.1016 Q1082.9063,393.1016 1083.1719,393.3359 Q1083.4375,393.5703 1083.4375,393.9609 Q1083.4375,394.3359 1083.1719,394.5703 Q1082.9063,394.8047 1082.2969,394.8047 L1080,394.8047 Q1079.3906,394.8047 1079.1406,394.5703 Q1078.875,394.3359 1078.875,393.9453 Q1078.875,393.5703 1079.1563,393.3359 Q1079.4219,393.0859 1080.0469,393.1016 L1082.7188,386.4453 L1081.6094,386.4453 Q1081,386.4453 1080.7344,386.2109 Q1080.4688,385.9766 1080.4688,385.5859 Q1080.4688,385.2109 1080.7344,384.9766 Q1081,384.7422 1081.6094,384.7422 L1085.2813,384.7422 L1088.6719,393.1016 Q1089.2656,393.1016 1089.4531,393.2422 Q1089.8438,393.5078 1089.8438,393.9609 Q1089.8438,394.3359 1089.5781,394.5703 Q1089.3281,394.8047 1088.7188,394.8047 L1086.4219,394.8047 Q1085.8125,394.8047 1085.5469,394.5703 Q1085.2813,394.3359 1085.2813,393.9453 Q1085.2813,393.5703 1085.5469,393.3359 Q1085.8125,393.1016 1086.4219,393.1016 L1086.8438,393.1016 L1086.4375,392.0703 Z M1085.7188,390.3672 L1084.3594,386.9922 L1082.9844,390.3672 L1085.7188,390.3672 Z " fill="#000000"/><text fill="#000000" font-family="sans-serif" font-size="12" font-style="italic" lengthAdjust="spacing" textLength="58" x="1104.25" y="385.9629">&#171;abstract&#187;</text><text fill="#000000" font-family="sans-serif" font-size="14" font-style="italic" lengthAdjust="spacing" textLength="57" x="1104.75" y="404.082">Producto</text><line style="stroke:#A80036;stroke-width:1.0;" x1="990" x2="1244" y1="412.5957" y2="412.5957"/><rect fill="none" height="6" style="stroke:#C82930;stroke-width:1.0;" width="6" x="997" y="424.4063"/><text fill="#000000" font-family="sans-serif" font-size="14" lengthAdjust="spacing" textLength="93" x="1009" y="431.7031">nombre: String</text><rect fill="none" height="6" style="stroke:#C82930;stroke-width:1.0;" width="6" x="997" y="443.0273"/><text fill="#000000" font-family="sans-serif" font-size="14" lengthAdjust="spacing" textLength="62" x="1009" y="450.3242">precio: int</text><line style="stroke:#A80036;stroke-width:1.0;" x1="990" x2="1244" y1="457.8379" y2="457.8379"/><ellipse cx="1000" cy="472.6484" fill="#84BE84" rx="3" ry="3" style="stroke:#038048;stroke-width:1.0;"/><text fill="#000000" font-family="sans-serif" font-size="14" lengthAdjust="spacing" textLength="230" x="1009" y="476.9453">Producto(nombre: String, precio: int)</text><ellipse cx="1000" cy="491.2695" fill="#84BE84" rx="3" ry="3" style="stroke:#038048;stroke-width:1.0;"/><text fill="#000000" font-family="sans-serif" font-size="14" lengthAdjust="spacing" textLength="124" x="1009" y="495.5664">getNombre(): String</text><ellipse cx="1000" cy="509.8906" fill="#84BE84" rx="3" ry="3" style="stroke:#038048;stroke-width:1.0;"/><text fill="#000000" font-family="sans-serif" font-size="14" lengthAdjust="spacing" textLength="121" x="1009" y="514.1875">getPrecio(): double</text><ellipse cx="1000" cy="528.5117" fill="#84BE84" rx="3" ry="3" style="stroke:#038048;stroke-width:1.0;"/><text fill="#000000" font-family="sans-serif" font-size="14" font-style="italic" lengthAdjust="spacing" textLength="168" x="1009" y="532.8086">calcularImpuesto(): double</text></g><!--class TipoPlato--><g id="elem_TipoPlato"><rect codeLine="19" fill="#FEFECE" filter="url(#fsb9db9a1yawh)" height="95.8633" id="TipoPlato" style="stroke:#A80036;stroke-width:1.0;" width="92" x="1071" y="88.0137"/><ellipse cx="1086" cy="104.0137" fill="#EB937F" rx="11" ry="11" style="stroke:#A80036;stroke-width:1.0;"/><path d="M1084.8594,104.8105 L1084.8594,107.3105 L1089.1875,107.3105 L1089.1875,106.3887 Q1089.1875,105.7793 1089.4219,105.5137 Q1089.6719,105.248 1090.0469,105.248 Q1090.4219,105.248 1090.6563,105.5137 Q1090.8906,105.7793 1090.8906,106.3887 L1090.8906,109.0137 L1082.8906,109.0137 Q1082.2656,109.0137 1082,108.7793 Q1081.75,108.5449 1081.75,108.1543 Q1081.75,107.7793 1082.0156,107.5449 Q1082.2813,107.3105 1082.8906,107.3105 L1083.1563,107.3105 L1083.1563,100.6543 L1082.8906,100.6543 Q1082.2656,100.6543 1082,100.4199 Q1081.75,100.1855 1081.75,99.7949 Q1081.75,99.4199 1082,99.1855 Q1082.2656,98.9512 1082.8906,98.9512 L1090.5156,98.9512 L1090.5156,101.5449 Q1090.5156,102.1543 1090.2813,102.4199 Q1090.0625,102.6699 1089.6719,102.6699 Q1089.2969,102.6699 1089.0625,102.4199 Q1088.8281,102.1543 1088.8281,101.5449 L1088.8281,100.6543 L1084.8594,100.6543 L1084.8594,103.1074 L1086.3438,103.1074 Q1086.3438,102.4512 1086.4688,102.2637 Q1086.7344,101.8574 1087.2031,101.8574 Q1087.5781,101.8574 1087.8125,102.123 Q1088.0469,102.373 1088.0469,102.9824 L1088.0469,104.9512 Q1088.0469,105.498 1087.9219,105.6855 Q1087.6563,106.0762 1087.2031,106.0762 Q1086.7344,106.0762 1086.4688,105.6699 Q1086.3438,105.4824 1086.3438,104.8105 L1084.8594,104.8105 Z " fill="#000000"/><text fill="#000000" font-family="sans-serif" font-size="14" lengthAdjust="spacing" textLength="60" x="1100" y="109.8105">TipoPlato</text><line style="stroke:#A80036;stroke-width:1.0;" x1="1072" x2="1162" y1="120.0137" y2="120.0137"/><ellipse cx="1082" cy="134.8242" fill="#000000" rx="3" ry="3" style="stroke:#000000;stroke-width:1.0;"/><text fill="#000000" font-family="sans-serif" font-size="14" lengthAdjust="spacing" textLength="65" x="1091" y="139.1211">ENTRADA</text><ellipse cx="1082" cy="153.4453" fill="#000000" rx="3" ry="3" style="stroke:#000000;stroke-width:1.0;"/><text fill="#000000" font-family="sans-serif" font-size="14" lengthAdjust="spacing" textLength="50" x="1091" y="157.7422">FONDO</text><ellipse cx="1082" cy="172.0664" fill="#000000" rx="3" ry="3" style="stroke:#000000;stroke-width:1.0;"/><text fill="#000000" font-family="sans-serif" font-size="14" lengthAdjust="spacing" textLength="57" x="1091" y="176.3633">POSTRE</text></g><!--class Plato--><g id="elem_Plato"><rect codeLine="25" fill="#FEFECE" filter="url(#fsb9db9a1yawh)" height="141.1055" id="Plato" style="stroke:#A80036;stroke-width:1.0;" width="452" x="380.5" y="106.5137"/><ellipse cx="586.25" cy="122.5137" fill="#ADD1B2" rx="11" ry="11" style="stroke:#A80036;stroke-width:1.0;"/><path d="M589.0156,118.3887 Q589.1719,118.1699 589.3594,118.0605 Q589.5469,117.9512 589.7656,117.9512 Q590.1406,117.9512 590.375,118.2168 Q590.6094,118.4668 590.6094,119.0762 L590.6094,120.5293 Q590.6094,121.1387 590.375,121.4043 Q590.1406,121.6699 589.7656,121.6699 Q589.4219,121.6699 589.2188,121.4668 Q589.0156,121.2793 588.9063,120.7637 Q588.8594,120.4043 588.6719,120.2168 Q588.3438,119.8418 587.7344,119.623 Q587.125,119.4043 586.5,119.4043 Q585.7344,119.4043 585.0938,119.7324 Q584.4688,120.0605 583.9688,120.8105 Q583.4844,121.5605 583.4844,122.5918 L583.4844,123.6855 Q583.4844,124.9199 584.375,125.748 Q585.2656,126.5605 586.8594,126.5605 Q587.7969,126.5605 588.4531,126.3105 Q588.8438,126.1543 589.2656,125.7168 Q589.5313,125.4512 589.6719,125.373 Q589.8281,125.2949 590.0313,125.2949 Q590.3594,125.2949 590.6094,125.5605 Q590.875,125.8105 590.875,126.1543 Q590.875,126.498 590.5313,126.9043 Q590.0313,127.4824 589.2344,127.8105 Q588.1563,128.2637 586.8594,128.2637 Q585.3438,128.2637 584.1406,127.6387 Q583.1563,127.1387 582.4688,126.0762 Q581.7813,124.998 581.7813,123.7168 L581.7813,122.5605 Q581.7813,121.2324 582.3906,120.0918 Q583.0156,118.9355 584.1094,118.3262 Q585.2031,117.7012 586.4375,117.7012 Q587.1719,117.7012 587.8125,117.873 Q588.4688,118.0293 589.0156,118.3887 Z " fill="#000000"/><text fill="#000000" font-family="sans-serif" font-size="14" lengthAdjust="spacing" textLength="32" x="606.75" y="128.3105">Plato</text><line style="stroke:#A80036;stroke-width:1.0;" x1="381.5" x2="831.5" y1="138.5137" y2="138.5137"/><rect fill="none" height="6" style="stroke:#C82930;stroke-width:1.0;" width="6" x="388.5" y="150.3242"/><text fill="#000000" font-family="sans-serif" font-size="14" lengthAdjust="spacing" textLength="82" x="400.5" y="157.6211">peso: double</text><rect fill="none" height="6" style="stroke:#C82930;stroke-width:1.0;" width="6" x="388.5" y="168.9453"/><text fill="#000000" font-family="sans-serif" font-size="14" lengthAdjust="spacing" textLength="123" x="400.5" y="176.2422">tipoPlato: TipoPlato</text><line style="stroke:#A80036;stroke-width:1.0;" x1="381.5" x2="831.5" y1="183.7559" y2="183.7559"/><ellipse cx="391.5" cy="198.5664" fill="#84BE84" rx="3" ry="3" style="stroke:#038048;stroke-width:1.0;"/><text fill="#000000" font-family="sans-serif" font-size="14" lengthAdjust="spacing" textLength="426" x="400.5" y="202.8633">Plato(nombre: String, precio: int, peso: double, tipoPlato: TipoPlato)</text><ellipse cx="391.5" cy="217.1875" fill="#84BE84" rx="3" ry="3" style="stroke:#038048;stroke-width:1.0;"/><text fill="#000000" font-family="sans-serif" font-size="14" lengthAdjust="spacing" textLength="113" x="400.5" y="221.4844">getPeso(): double</text><ellipse cx="391.5" cy="235.8086" fill="#84BE84" rx="3" ry="3" style="stroke:#038048;stroke-width:1.0;"/><text fill="#000000" font-family="sans-serif" font-size="14" lengthAdjust="spacing" textLength="158" x="400.5" y="240.1055">getTipoPlato(): TipoPlato</text></g><!--class TipoBebida--><g id="elem_TipoBebida"><rect codeLine="35" fill="#FEFECE" filter="url(#fsb9db9a1yawh)" height="114.4844" id="TipoBebida" style="stroke:#A80036;stroke-width:1.0;" width="104" x="1065" y="219.0137"/><ellipse cx="1080" cy="235.0137" fill="#EB937F" rx="11" ry="11" style="stroke:#A80036;stroke-width:1.0;"/><path d="M1078.8594,235.8105 L1078.8594,238.3105 L1083.1875,238.3105 L1083.1875,237.3887 Q1083.1875,236.7793 1083.4219,236.5137 Q1083.6719,236.248 1084.0469,236.248 Q1084.4219,236.248 1084.6563,236.5137 Q1084.8906,236.7793 1084.8906,237.3887 L1084.8906,240.0137 L1076.8906,240.0137 Q1076.2656,240.0137 1076,239.7793 Q1075.75,239.5449 1075.75,239.1543 Q1075.75,238.7793 1076.0156,238.5449 Q1076.2813,238.3105 1076.8906,238.3105 L1077.1563,238.3105 L1077.1563,231.6543 L1076.8906,231.6543 Q1076.2656,231.6543 1076,231.4199 Q1075.75,231.1855 1075.75,230.7949 Q1075.75,230.4199 1076,230.1855 Q1076.2656,229.9512 1076.8906,229.9512 L1084.5156,229.9512 L1084.5156,232.5449 Q1084.5156,233.1543 1084.2813,233.4199 Q1084.0625,233.6699 1083.6719,233.6699 Q1083.2969,233.6699 1083.0625,233.4199 Q1082.8281,233.1543 1082.8281,232.5449 L1082.8281,231.6543 L1078.8594,231.6543 L1078.8594,234.1074 L1080.3438,234.1074 Q1080.3438,233.4512 1080.4688,233.2637 Q1080.7344,232.8574 1081.2031,232.8574 Q1081.5781,232.8574 1081.8125,233.123 Q1082.0469,233.373 1082.0469,233.9824 L1082.0469,235.9512 Q1082.0469,236.498 1081.9219,236.6855 Q1081.6563,237.0762 1081.2031,237.0762 Q1080.7344,237.0762 1080.4688,236.6699 Q1080.3438,236.4824 1080.3438,235.8105 L1078.8594,235.8105 Z " fill="#000000"/><text fill="#000000" font-family="sans-serif" font-size="14" lengthAdjust="spacing" textLength="72" x="1094" y="240.8105">TipoBebida</text><line style="stroke:#A80036;stroke-width:1.0;" x1="1066" x2="1168" y1="251.0137" y2="251.0137"/><ellipse cx="1076" cy="265.8242" fill="#000000" rx="3" ry="3" style="stroke:#000000;stroke-width:1.0;"/><text fill="#000000" font-family="sans-serif" font-size="14" lengthAdjust="spacing" textLength="38" x="1085" y="270.1211">AGUA</text><ellipse cx="1076" cy="284.4453" fill="#000000" rx="3" ry="3" style="stroke:#000000;stroke-width:1.0;"/><text fill="#000000" font-family="sans-serif" font-size="14" lengthAdjust="spacing" textLength="37" x="1085" y="288.7422">JUGO</text><ellipse cx="1076" cy="303.0664" fill="#000000" rx="3" ry="3" style="stroke:#000000;stroke-width:1.0;"/><text fill="#000000" font-family="sans-serif" font-size="14" lengthAdjust="spacing" textLength="74" x="1085" y="307.3633">CERVERZA</text><ellipse cx="1076" cy="321.6875" fill="#000000" rx="3" ry="3" style="stroke:#000000;stroke-width:1.0;"/><text fill="#000000" font-family="sans-serif" font-size="14" lengthAdjust="spacing" textLength="32" x="1085" y="325.9844">VINO</text></g><!--class Bebida--><g id="elem_Bebida"><rect codeLine="42" fill="#FEFECE" filter="url(#fsb9db9a1yawh)" height="141.1055" id="Bebida" style="stroke:#A80036;stroke-width:1.0;" width="479" x="367" y="300.5137"/><ellipse cx="580.25" cy="316.5137" fill="#ADD1B2" rx="11" ry="11" style="stroke:#A80036;stroke-width:1.0;"/><path d="M583.0156,312.3887 Q583.1719,312.1699 583.3594,312.0605 Q583.5469,311.9512 583.7656,311.9512 Q584.1406,311.9512 584.375,312.2168 Q584.6094,312.4668 584.6094,313.0762 L584.6094,314.5293 Q584.6094,315.1387 584.375,315.4043 Q584.1406,315.6699 583.7656,315.6699 Q583.4219,315.6699 583.2188,315.4668 Q583.0156,315.2793 582.9063,314.7637 Q582.8594,314.4043 582.6719,314.2168 Q582.3438,313.8418 581.7344,313.623 Q581.125,313.4043 580.5,313.4043 Q579.7344,313.4043 579.0938,313.7324 Q578.4688,314.0605 577.9688,314.8105 Q577.4844,315.5605 577.4844,316.5918 L577.4844,317.6855 Q577.4844,318.9199 578.375,319.748 Q579.2656,320.5605 580.8594,320.5605 Q581.7969,320.5605 582.4531,320.3105 Q582.8438,320.1543 583.2656,319.7168 Q583.5313,319.4512 583.6719,319.373 Q583.8281,319.2949 584.0313,319.2949 Q584.3594,319.2949 584.6094,319.5605 Q584.875,319.8105 584.875,320.1543 Q584.875,320.498 584.5313,320.9043 Q584.0313,321.4824 583.2344,321.8105 Q582.1563,322.2637 580.8594,322.2637 Q579.3438,322.2637 578.1406,321.6387 Q577.1563,321.1387 576.4688,320.0762 Q575.7813,318.998 575.7813,317.7168 L575.7813,316.5605 Q575.7813,315.2324 576.3906,314.0918 Q577.0156,312.9355 578.1094,312.3262 Q579.2031,311.7012 580.4375,311.7012 Q581.1719,311.7012 581.8125,311.873 Q582.4688,312.0293 583.0156,312.3887 Z " fill="#000000"/><text fill="#000000" font-family="sans-serif" font-size="14" lengthAdjust="spacing" textLength="44" x="600.75" y="322.3105">Bebida</text><line style="stroke:#A80036;stroke-width:1.0;" x1="368" x2="845" y1="332.5137" y2="332.5137"/><rect fill="none" height="6" style="stroke:#C82930;stroke-width:1.0;" width="6" x="375" y="344.3242"/><text fill="#000000" font-family="sans-serif" font-size="14" lengthAdjust="spacing" textLength="73" x="387" y="351.6211">tamanio: int</text><rect fill="none" height="6" style="stroke:#C82930;stroke-width:1.0;" width="6" x="375" y="362.9453"/><text fill="#000000" font-family="sans-serif" font-size="14" lengthAdjust="spacing" textLength="147" x="387" y="370.2422">tipoBebida: TipoBebida</text><line style="stroke:#A80036;stroke-width:1.0;" x1="368" x2="845" y1="377.7559" y2="377.7559"/><ellipse cx="378" cy="392.5664" fill="#84BE84" rx="3" ry="3" style="stroke:#038048;stroke-width:1.0;"/><text fill="#000000" font-family="sans-serif" font-size="14" lengthAdjust="spacing" textLength="453" x="387" y="396.8633">Bebida(nombre: String, precio: int, tamanio: int, tipoBebida: TipoBebida)</text><ellipse cx="378" cy="411.1875" fill="#84BE84" rx="3" ry="3" style="stroke:#038048;stroke-width:1.0;"/><text fill="#000000" font-family="sans-serif" font-size="14" lengthAdjust="spacing" textLength="108" x="387" y="415.4844">getTamanio(): int</text><ellipse cx="378" cy="429.8086" fill="#84BE84" rx="3" ry="3" style="stroke:#038048;stroke-width:1.0;"/><text fill="#000000" font-family="sans-serif" font-size="14" lengthAdjust="spacing" textLength="182" x="387" y="434.1055">getTipoBebida(): TipoBebida</text></g><!--class Facturable--><g id="elem_Facturable"><rect codeLine="52" fill="#FEFECE" filter="url(#fsb9db9a1yawh)" height="77.2422" id="Facturable" style="stroke:#A80036;stroke-width:1.0;" width="241" x="996.5" y="575.5137"/><ellipse cx="1078.75" cy="591.5137" fill="#B4A7E5" rx="11" ry="11" style="stroke:#A80036;stroke-width:1.0;"/><path d="M1079.7031,588.1543 L1079.7031,594.8105 L1081.4219,594.8105 Q1082.0313,594.8105 1082.2969,595.0449 Q1082.5625,595.2793 1082.5625,595.6699 Q1082.5625,596.0449 1082.2969,596.2793 Q1082.0313,596.5137 1081.4219,596.5137 L1076.2813,596.5137 Q1075.6719,596.5137 1075.4063,596.2793 Q1075.1406,596.0449 1075.1406,595.6543 Q1075.1406,595.2793 1075.4063,595.0449 Q1075.6719,594.8105 1076.2813,594.8105 L1078,594.8105 L1078,588.1543 L1076.2813,588.1543 Q1075.6719,588.1543 1075.4063,587.9199 Q1075.1406,587.6855 1075.1406,587.2949 Q1075.1406,586.9199 1075.4063,586.6855 Q1075.6719,586.4512 1076.2813,586.4512 L1081.4219,586.4512 Q1082.0313,586.4512 1082.2969,586.6855 Q1082.5625,586.9199 1082.5625,587.2949 Q1082.5625,587.6855 1082.2969,587.9199 Q1082.0313,588.1543 1081.4219,588.1543 L1079.7031,588.1543 Z " fill="#000000"/><text fill="#000000" font-family="sans-serif" font-size="14" font-style="italic" lengthAdjust="spacing" textLength="68" x="1099.25" y="597.3105">Facturable</text><line style="stroke:#A80036;stroke-width:1.0;" x1="997.5" x2="1236.5" y1="607.5137" y2="607.5137"/><ellipse cx="1007.5" cy="622.3242" fill="#84BE84" rx="3" ry="3" style="stroke:#038048;stroke-width:1.0;"/><text fill="#000000" font-family="sans-serif" font-size="14" lengthAdjust="spacing" textLength="215" x="1016.5" y="626.6211">agregar(producto: Producto): void</text><ellipse cx="1007.5" cy="640.9453" fill="#84BE84" rx="3" ry="3" style="stroke:#038048;stroke-width:1.0;"/><text fill="#000000" font-family="sans-serif" font-size="14" lengthAdjust="spacing" textLength="142" x="1016.5" y="645.2422">calcularTotal(): double</text></g><!--class Pedido--><g id="elem_Pedido"><rect codeLine="57" fill="#FEFECE" filter="url(#fsb9db9a1yawh)" height="141.1055" id="Pedido" style="stroke:#A80036;stroke-width:1.0;" width="200" x="506.5" y="511.5137"/><ellipse cx="580.25" cy="527.5137" fill="#ADD1B2" rx="11" ry="11" style="stroke:#A80036;stroke-width:1.0;"/><path d="M583.0156,523.3887 Q583.1719,523.1699 583.3594,523.0605 Q583.5469,522.9512 583.7656,522.9512 Q584.1406,522.9512 584.375,523.2168 Q584.6094,523.4668 584.6094,524.0762 L584.6094,525.5293 Q584.6094,526.1387 584.375,526.4043 Q584.1406,526.6699 583.7656,526.6699 Q583.4219,526.6699 583.2188,526.4668 Q583.0156,526.2793 582.9063,525.7637 Q582.8594,525.4043 582.6719,525.2168 Q582.3438,524.8418 581.7344,524.623 Q581.125,524.4043 580.5,524.4043 Q579.7344,524.4043 579.0938,524.7324 Q578.4688,525.0605 577.9688,525.8105 Q577.4844,526.5605 577.4844,527.5918 L577.4844,528.6855 Q577.4844,529.9199 578.375,530.748 Q579.2656,531.5605 580.8594,531.5605 Q581.7969,531.5605 582.4531,531.3105 Q582.8438,531.1543 583.2656,530.7168 Q583.5313,530.4512 583.6719,530.373 Q583.8281,530.2949 584.0313,530.2949 Q584.3594,530.2949 584.6094,530.5605 Q584.875,530.8105 584.875,531.1543 Q584.875,531.498 584.5313,531.9043 Q584.0313,532.4824 583.2344,532.8105 Q582.1563,533.2637 580.8594,533.2637 Q579.3438,533.2637 578.1406,532.6387 Q577.1563,532.1387 576.4688,531.0762 Q575.7813,529.998 575.7813,528.7168 L575.7813,527.5605 Q575.7813,526.2324 576.3906,525.0918 Q577.0156,523.9355 578.1094,523.3262 Q579.2031,522.7012 580.4375,522.7012 Q581.1719,522.7012 581.8125,522.873 Q582.4688,523.0293 583.0156,523.3887 Z " fill="#000000"/><text fill="#000000" font-family="sans-serif" font-size="14" lengthAdjust="spacing" textLength="44" x="600.75" y="533.3105">Pedido</text><line style="stroke:#A80036;stroke-width:1.0;" x1="507.5" x2="705.5" y1="543.5137" y2="543.5137"/><rect fill="none" height="6" style="stroke:#C82930;stroke-width:1.0;" width="6" x="514.5" y="555.3242"/><text fill="#000000" font-family="sans-serif" font-size="14" lengthAdjust="spacing" textLength="57" x="526.5" y="562.6211">mesa: int</text><rect fill="none" height="6" style="stroke:#C82930;stroke-width:1.0;" width="6" x="514.5" y="573.9453"/><text fill="#000000" font-family="sans-serif" font-size="14" lengthAdjust="spacing" textLength="166" x="526.5" y="581.2422">productos: List&lt;Producto&gt;</text><line style="stroke:#A80036;stroke-width:1.0;" x1="507.5" x2="705.5" y1="588.7559" y2="588.7559"/><ellipse cx="517.5" cy="603.5664" fill="#84BE84" rx="3" ry="3" style="stroke:#038048;stroke-width:1.0;"/><text fill="#000000" font-family="sans-serif" font-size="14" lengthAdjust="spacing" textLength="111" x="526.5" y="607.8633">Pedido(mesa: int)</text><ellipse cx="517.5" cy="622.1875" fill="#84BE84" rx="3" ry="3" style="stroke:#038048;stroke-width:1.0;"/><text fill="#000000" font-family="sans-serif" font-size="14" lengthAdjust="spacing" textLength="87" x="526.5" y="626.4844">getMesa(): int</text><ellipse cx="517.5" cy="640.8086" fill="#84BE84" rx="3" ry="3" style="stroke:#038048;stroke-width:1.0;"/><text fill="#000000" font-family="sans-serif" font-size="14" lengthAdjust="spacing" textLength="174" x="526.5" y="645.1055">getCantidadProductos(): int</text></g><!--class Sistema--><g id="elem_Sistema"><rect codeLine="70" fill="#FEFECE" filter="url(#fsb9db9a1yawh)" height="77.2422" id="Sistema" style="stroke:#A80036;stroke-width:1.0;" width="406" x="403.5" y="734.5137"/><ellipse cx="577.25" cy="750.5137" fill="#B4A7E5" rx="11" ry="11" style="stroke:#A80036;stroke-width:1.0;"/><path d="M578.2031,747.1543 L578.2031,753.8105 L579.9219,753.8105 Q580.5313,753.8105 580.7969,754.0449 Q581.0625,754.2793 581.0625,754.6699 Q581.0625,755.0449 580.7969,755.2793 Q580.5313,755.5137 579.9219,755.5137 L574.7813,755.5137 Q574.1719,755.5137 573.9063,755.2793 Q573.6406,755.0449 573.6406,754.6543 Q573.6406,754.2793 573.9063,754.0449 Q574.1719,753.8105 574.7813,753.8105 L576.5,753.8105 L576.5,747.1543 L574.7813,747.1543 Q574.1719,747.1543 573.9063,746.9199 Q573.6406,746.6855 573.6406,746.2949 Q573.6406,745.9199 573.9063,745.6855 Q574.1719,745.4512 574.7813,745.4512 L579.9219,745.4512 Q580.5313,745.4512 580.7969,745.6855 Q581.0625,745.9199 581.0625,746.2949 Q581.0625,746.6855 580.7969,746.9199 Q580.5313,747.1543 579.9219,747.1543 L578.2031,747.1543 Z " fill="#000000"/><text fill="#000000" font-family="sans-serif" font-size="14" font-style="italic" lengthAdjust="spacing" textLength="50" x="597.75" y="756.3105">Sistema</text><line style="stroke:#A80036;stroke-width:1.0;" x1="404.5" x2="808.5" y1="766.5137" y2="766.5137"/><ellipse cx="414.5" cy="781.3242" fill="#84BE84" rx="3" ry="3" style="stroke:#038048;stroke-width:1.0;"/><text fill="#000000" font-family="sans-serif" font-size="14" lengthAdjust="spacing" textLength="155" x="423.5" y="785.6211">totalPagar(mesa: int): int</text><ellipse cx="414.5" cy="799.9453" fill="#84BE84" rx="3" ry="3" style="stroke:#038048;stroke-width:1.0;"/><text fill="#000000" font-family="sans-serif" font-size="14" lengthAdjust="spacing" textLength="380" x="423.5" y="804.2422">agregarProductoAMesa(producto: Producto, mesa: int): void</text></g><!--class SistemaImpl--><g id="elem_SistemaImpl"><rect codeLine="75" fill="#FEFECE" filter="url(#fsb9db9a1yawh)" height="85.2422" id="SistemaImpl" style="stroke:#A80036;stroke-width:1.0;" width="166" x="56" y="730.5137"/><ellipse cx="97.55" cy="746.5137" fill="#ADD1B2" rx="11" ry="11" style="stroke:#A80036;stroke-width:1.0;"/><path d="M100.3156,742.3887 Q100.4719,742.1699 100.6594,742.0605 Q100.8469,741.9512 101.0656,741.9512 Q101.4406,741.9512 101.675,742.2168 Q101.9094,742.4668 101.9094,743.0762 L101.9094,744.5293 Q101.9094,745.1387 101.675,745.4043 Q101.4406,745.6699 101.0656,745.6699 Q100.7219,745.6699 100.5188,745.4668 Q100.3156,745.2793 100.2063,744.7637 Q100.1594,744.4043 99.9719,744.2168 Q99.6438,743.8418 99.0344,743.623 Q98.425,743.4043 97.8,743.4043 Q97.0344,743.4043 96.3938,743.7324 Q95.7688,744.0605 95.2688,744.8105 Q94.7844,745.5605 94.7844,746.5918 L94.7844,747.6855 Q94.7844,748.9199 95.675,749.748 Q96.5656,750.5605 98.1594,750.5605 Q99.0969,750.5605 99.7531,750.3105 Q100.1438,750.1543 100.5656,749.7168 Q100.8313,749.4512 100.9719,749.373 Q101.1281,749.2949 101.3313,749.2949 Q101.6594,749.2949 101.9094,749.5605 Q102.175,749.8105 102.175,750.1543 Q102.175,750.498 101.8313,750.9043 Q101.3313,751.4824 100.5344,751.8105 Q99.4563,752.2637 98.1594,752.2637 Q96.6438,752.2637 95.4406,751.6387 Q94.4563,751.1387 93.7688,750.0762 Q93.0813,748.998 93.0813,747.7168 L93.0813,746.5605 Q93.0813,745.2324 93.6906,744.0918 Q94.3156,742.9355 95.4094,742.3262 Q96.5031,741.7012 97.7375,741.7012 Q98.4719,741.7012 99.1125,741.873 Q99.7688,742.0293 100.3156,742.3887 Z " fill="#000000"/><text fill="#000000" font-family="sans-serif" font-size="14" lengthAdjust="spacing" textLength="75" x="117.45" y="752.3105">SistemaImpl</text><line style="stroke:#A80036;stroke-width:1.0;" x1="57" x2="221" y1="762.5137" y2="762.5137"/><rect fill="none" height="6" style="stroke:#C82930;stroke-width:1.0;" width="6" x="64" y="774.3242"/><text fill="#000000" font-family="sans-serif" font-size="14" lengthAdjust="spacing" textLength="140" x="76" y="781.6211">pedidos: List&lt;Pedido&gt;</text><line style="stroke:#A80036;stroke-width:1.0;" x1="57" x2="221" y1="789.1348" y2="789.1348"/><ellipse cx="67" cy="803.9453" fill="#84BE84" rx="3" ry="3" style="stroke:#038048;stroke-width:1.0;"/><text fill="#000000" font-family="sans-serif" font-size="14" lengthAdjust="spacing" textLength="60" x="76" y="808.2422">Sistema()</text></g><!--link Plato to TipoPlato--><g id="link_Plato_TipoPlato"><path codeLine="32" d="M832.76,158.8537 C922.28,151.6337 1010.6894,144.506 1064.7494,140.146 " fill="none" id="Plato-to-TipoPlato" style="stroke:#A80036;stroke-width:1.0;"/><polygon fill="#A80036" points="1070.73,139.6637,1061.4376,136.4001,1065.7462,140.0656,1062.0807,144.3742,1070.73,139.6637" style="stroke:#A80036;stroke-width:1.0;"/><text fill="#000000" font-family="sans-serif" font-size="13" lengthAdjust="spacing" textLength="7" x="1056.109" y="155.5852">1</text></g><!--link Plato to Producto--><g id="link_Plato_Producto"><path codeLine="33" d="M774.83,247.6437 C798.99,258.9137 823.33,270.8837 846,283.0137 C893.82,308.6037 929.3492,329.8493 973.7092,358.3693 " fill="none" id="Plato-to-Producto" style="stroke:#A80036;stroke-width:1.0;"/><polygon fill="none" points="988.85,368.1037,976.954,353.3224,970.4645,363.4163,988.85,368.1037" style="stroke:#A80036;stroke-width:1.0;"/></g><!--link Bebida to TipoBebida--><g id="link_Bebida_TipoBebida"><path codeLine="49" d="M846.12,326.4337 C928.43,311.0537 1007.0419,296.3648 1059.0519,286.6548 " fill="none" id="Bebida-to-TipoBebida" style="stroke:#A80036;stroke-width:1.0;"/><polygon fill="#A80036" points="1064.95,285.5537,1055.3688,283.2733,1060.0349,286.4713,1056.837,291.1374,1064.95,285.5537" style="stroke:#A80036;stroke-width:1.0;"/><text fill="#000000" font-family="sans-serif" font-size="13" lengthAdjust="spacing" textLength="7" x="1050.1383" y="302.1053">1</text></g><!--link Bebida to Producto--><g id="link_Bebida_Producto"><path codeLine="50" d="M846.12,409.9637 C895.4,418.0037 927.7046,423.2869 971.1246,430.3669 " fill="none" id="Bebida-to-Producto" style="stroke:#A80036;stroke-width:1.0;"/><polygon fill="none" points="988.89,433.2637,972.0902,424.4451,970.159,436.2887,988.89,433.2637" style="stroke:#A80036;stroke-width:1.0;"/></g><!--link Pedido to Facturable--><g id="link_Pedido_Facturable"><path codeLine="64" d="M706.75,588.2637 C789.7,593.4837 890.2854,599.8149 978.4554,605.3549 " fill="none" id="Pedido-to-Facturable" style="stroke:#A80036;stroke-width:1.0;stroke-dasharray:7.0,7.0;"/><polygon fill="none" points="996.42,606.4837,978.8317,599.3667,978.0792,611.3431,996.42,606.4837" style="stroke:#A80036;stroke-width:1.0;"/><text fill="#000000" font-family="sans-serif" font-size="13" lengthAdjust="spacing" textLength="81" x="877" y="595.042">&#171;implements&#187;</text></g><!--link Pedido to Producto--><g id="link_Pedido_Producto"><path codeLine="65" d="M718.3869,554.1042 C799.0269,533.8042 895.8515,509.4284 983.1615,487.4484 " fill="none" id="Pedido-Producto" style="stroke:#A80036;stroke-width:1.0;"/><polygon fill="none" points="706.75,557.0337,713.5449,559.4479,718.3869,554.1042,711.592,551.69,706.75,557.0337" style="stroke:#A80036;stroke-width:1.0;"/><polygon fill="#A80036" points="988.98,485.9837,979.2758,484.3019,984.1313,487.2043,981.2288,492.0598,988.98,485.9837" style="stroke:#A80036;stroke-width:1.0;"/><text fill="#000000" font-family="sans-serif" font-size="13" lengthAdjust="spacing" textLength="5" x="976.0264" y="502.4776">*</text></g><!--link SistemaImpl to Sistema--><g id="link_SistemaImpl_Sistema"><path codeLine="79" d="M222.15,773.0137 C272.52,773.0137 321.39,773.0137 385.16,773.0137 " fill="none" id="SistemaImpl-to-Sistema" style="stroke:#A80036;stroke-width:1.0;stroke-dasharray:7.0,7.0;"/><polygon fill="none" points="403.16,773.0137,385.16,767.0137,385.16,779.0137,403.16,773.0137" style="stroke:#A80036;stroke-width:1.0;"/><text fill="#000000" font-family="sans-serif" font-size="13" lengthAdjust="spacing" textLength="81" x="253" y="769.042">&#171;implements&#187;</text></g><!--link SistemaImpl to Pedido--><g id="link_SistemaImpl_Pedido"><path codeLine="80" d="M233.2522,734.7495 C312.6022,702.1995 416.2191,659.6812 500.8391,624.9612 " fill="none" id="SistemaImpl-Pedido" style="stroke:#A80036;stroke-width:1.0;"/><polygon fill="none" points="222.15,739.3037,229.2192,740.7273,233.2522,734.7495,226.183,733.3258,222.15,739.3037" style="stroke:#A80036;stroke-width:1.0;"/><polygon fill="#A80036" points="506.39,622.6837,496.5452,622.3994,501.7642,624.5816,499.582,629.8006,506.39,622.6837" style="stroke:#A80036;stroke-width:1.0;"/><text fill="#000000" font-family="sans-serif" font-size="13" lengthAdjust="spacing" textLength="5" x="493.5339" y="640.4837">*</text></g><!--SRC=[VPNBRk8m58RtUGgB5RGGgTi8HQ8jhJhgG0IqYzcPv3Ir6iUHxLGQTNZtERau2OuXAx3_S_k_s55VB2TIAF0KQAAWe99g8KakSl0o-D142o9P-gb9mYJ4cedS-sG94E25_aiuy2D8vNa5ZRze2YJE_3BE_OIfs2-4y2KeJKj9Smtan_C8FaRAHGAPMQmUUbHQqbXZ4geKYQH8oXZhBvTc9mnHJmRF0ZlbHma1sMl9yjJQBB1b9WB2SdssSzibdvx7puSXCoic1RsfrTEPirwjYEhuIf68yfZ1cUB73792SKopkCoeVE55YIwvOawzEP2Nd1nO8Q8C2Last93rvh1RFQwirQVjvd5hhKNR_M6tTfLeRNVaHoT12UT82w9DKq7Vd-rsjNRDwlbPWRapfmD7X44NhAxtkzXAD6xkrFrgXbuiGZAvcpYKPlzVsBqv3ZJtS6G97R5PFR_PO7wzFTjS7jQxz_NkZwryVzbiByDoLaGabDFSzU8tj9geOD2pPLspU1tOiCRyGbe7iaCJLW4PdyeMMLj-vkomXzOEFwHcQJk5anlM1_b1Oo1FU2Jnai9toBBobj1KGahbj6Z3WouHjlSjM6BfpQa-24spwqUwFM-Gi6Hyu3Wewk9d-b01UMLABqqteNtawhJJBeq3nM_SkyZX0Qziz2un-PMj71oUPWBVHvTx9mEyjnalCk2GQnM6jbpKt6ucFPY1FUOReK1-inZKy3FHOzkZ0S3fY9ckl8zeXQsVtpLd2zTqiAeT6PEUas6QC-WZd6rFUAbdZakqchmZL_-pkRNnqvd3w67kskrsuQBLmu3Uxxgkrzfzylu3]--></g></svg>